<?xml version="1.0" encoding="UTF-8" standalone="no"?>
<!DOCTYPE svg PUBLIC "-//W3C//DTD SVG 1.1//EN"
 "http://www.w3.org/Graphics/SVG/1.1/DTD/svg11.dtd">
<!-- Generated by graphviz version 2.38.0 (20140413.2041)
 -->
<!-- Title: Tree Pages: 1 -->
<svg width="743pt" height="581pt"
 viewBox="0.00 0.00 743.00 581.00" xmlns="http://www.w3.org/2000/svg" xmlns:xlink="http://www.w3.org/1999/xlink">
<g id="graph0" class="graph" transform="scale(1 1) rotate(0) translate(4 577)">
<title>Tree</title>
<polygon fill="white" stroke="none" points="-4,4 -4,-577 739,-577 739,4 -4,4"/>
<!-- 0 -->
<g id="node1" class="node"><title>0</title>
<polygon fill="none" stroke="black" points="454.5,-573 329.5,-573 329.5,-505 454.5,-505 454.5,-573"/>
<text text-anchor="middle" x="392" y="-557.8" font-family="Times New Roman,serif" font-size="14.00">X[2] &lt;= 2.45</text>
<text text-anchor="middle" x="392" y="-542.8" font-family="Times New Roman,serif" font-size="14.00">gini = 0.6667</text>
<text text-anchor="middle" x="392" y="-527.8" font-family="Times New Roman,serif" font-size="14.00">samples = 150</text>
<text text-anchor="middle" x="392" y="-512.8" font-family="Times New Roman,serif" font-size="14.00">value = [50, 50, 50]</text>
</g>
<!-- 1 -->
<g id="node2" class="node"><title>1</title>
<polygon fill="none" stroke="black" points="381,-461.5 269,-461.5 269,-408.5 381,-408.5 381,-461.5"/>
<text text-anchor="middle" x="325" y="-446.3" font-family="Times New Roman,serif" font-size="14.00">gini = 0.0</text>
<text text-anchor="middle" x="325" y="-431.3" font-family="Times New Roman,serif" font-size="14.00">samples = 50</text>
<text text-anchor="middle" x="325" y="-416.3" font-family="Times New Roman,serif" font-size="14.00">value = [50, 0, 0]</text>
</g>
<!-- 0&#45;&gt;1 -->
<g id="edge1" class="edge"><title>0&#45;&gt;1</title>
<path fill="none" stroke="black" d="M370.247,-504.884C362.951,-493.776 354.803,-481.372 347.454,-470.184"/>
<polygon fill="black" stroke="black" points="350.179,-467.957 341.763,-461.52 344.328,-471.8 350.179,-467.957"/>
<text text-anchor="middle" x="336.693" y="-482.3" font-family="Times New Roman,serif" font-size="14.00">True</text>
</g>
<!-- 2 -->
<g id="node3" class="node"><title>2</title>
<polygon fill="none" stroke="black" points="518.5,-469 399.5,-469 399.5,-401 518.5,-401 518.5,-469"/>
<text text-anchor="middle" x="459" y="-453.8" font-family="Times New Roman,serif" font-size="14.00">X[3] &lt;= 1.75</text>
<text text-anchor="middle" x="459" y="-438.8" font-family="Times New Roman,serif" font-size="14.00">gini = 0.5</text>
<text text-anchor="middle" x="459" y="-423.8" font-family="Times New Roman,serif" font-size="14.00">samples = 100</text>
<text text-anchor="middle" x="459" y="-408.8" font-family="Times New Roman,serif" font-size="14.00">value = [0, 50, 50]</text>
</g>
<!-- 0&#45;&gt;2 -->
<g id="edge2" class="edge"><title>0&#45;&gt;2</title>
<path fill="none" stroke="black" d="M413.753,-504.884C419.428,-496.243 425.619,-486.819 431.548,-477.793"/>
<polygon fill="black" stroke="black" points="434.562,-479.579 437.127,-469.299 428.711,-475.736 434.562,-479.579"/>
<text text-anchor="middle" x="442.197" y="-490.08" font-family="Times New Roman,serif" font-size="14.00">False</text>
</g>
<!-- 3 -->
<g id="node4" class="node"><title>3</title>
<polygon fill="none" stroke="black" points="422,-365 310,-365 310,-297 422,-297 422,-365"/>
<text text-anchor="middle" x="366" y="-349.8" font-family="Times New Roman,serif" font-size="14.00">X[2] &lt;= 4.95</text>
<text text-anchor="middle" x="366" y="-334.8" font-family="Times New Roman,serif" font-size="14.00">gini = 0.168</text>
<text text-anchor="middle" x="366" y="-319.8" font-family="Times New Roman,serif" font-size="14.00">samples = 54</text>
<text text-anchor="middle" x="366" y="-304.8" font-family="Times New Roman,serif" font-size="14.00">value = [0, 49, 5]</text>
</g>
<!-- 2&#45;&gt;3 -->
<g id="edge3" class="edge"><title>2&#45;&gt;3</title>
<path fill="none" stroke="black" d="M428.806,-400.884C420.684,-391.976 411.803,-382.235 403.343,-372.957"/>
<polygon fill="black" stroke="black" points="405.685,-370.331 396.361,-365.299 400.512,-375.047 405.685,-370.331"/>
</g>
<!-- 12 -->
<g id="node13" class="node"><title>12</title>
<polygon fill="none" stroke="black" points="608,-365 496,-365 496,-297 608,-297 608,-365"/>
<text text-anchor="middle" x="552" y="-349.8" font-family="Times New Roman,serif" font-size="14.00">X[2] &lt;= 4.85</text>
<text text-anchor="middle" x="552" y="-334.8" font-family="Times New Roman,serif" font-size="14.00">gini = 0.0425</text>
<text text-anchor="middle" x="552" y="-319.8" font-family="Times New Roman,serif" font-size="14.00">samples = 46</text>
<text text-anchor="middle" x="552" y="-304.8" font-family="Times New Roman,serif" font-size="14.00">value = [0, 1, 45]</text>
</g>
<!-- 2&#45;&gt;12 -->
<g id="edge12" class="edge"><title>2&#45;&gt;12</title>
<path fill="none" stroke="black" d="M489.194,-400.884C497.316,-391.976 506.197,-382.235 514.657,-372.957"/>
<polygon fill="black" stroke="black" points="517.488,-375.047 521.639,-365.299 512.315,-370.331 517.488,-375.047"/>
</g>
<!-- 4 -->
<g id="node5" class="node"><title>4</title>
<polygon fill="none" stroke="black" points="239,-261 127,-261 127,-193 239,-193 239,-261"/>
<text text-anchor="middle" x="183" y="-245.8" font-family="Times New Roman,serif" font-size="14.00">X[3] &lt;= 1.65</text>
<text text-anchor="middle" x="183" y="-230.8" font-family="Times New Roman,serif" font-size="14.00">gini = 0.0408</text>
<text text-anchor="middle" x="183" y="-215.8" font-family="Times New Roman,serif" font-size="14.00">samples = 48</text>
<text text-anchor="middle" x="183" y="-200.8" font-family="Times New Roman,serif" font-size="14.00">value = [0, 47, 1]</text>
</g>
<!-- 3&#45;&gt;4 -->
<g id="edge4" class="edge"><title>3&#45;&gt;4</title>
<path fill="none" stroke="black" d="M309.601,-298.564C290.115,-287.704 268.126,-275.448 248.008,-264.234"/>
<polygon fill="black" stroke="black" points="249.652,-261.143 239.213,-259.332 246.244,-267.258 249.652,-261.143"/>
</g>
<!-- 7 -->
<g id="node8" class="node"><title>7</title>
<polygon fill="none" stroke="black" points="418.5,-261 313.5,-261 313.5,-193 418.5,-193 418.5,-261"/>
<text text-anchor="middle" x="366" y="-245.8" font-family="Times New Roman,serif" font-size="14.00">X[3] &lt;= 1.55</text>
<text text-anchor="middle" x="366" y="-230.8" font-family="Times New Roman,serif" font-size="14.00">gini = 0.4444</text>
<text text-anchor="middle" x="366" y="-215.8" font-family="Times New Roman,serif" font-size="14.00">samples = 6</text>
<text text-anchor="middle" x="366" y="-200.8" font-family="Times New Roman,serif" font-size="14.00">value = [0, 2, 4]</text>
</g>
<!-- 3&#45;&gt;7 -->
<g id="edge7" class="edge"><title>3&#45;&gt;7</title>
<path fill="none" stroke="black" d="M366,-296.884C366,-288.778 366,-279.982 366,-271.472"/>
<polygon fill="black" stroke="black" points="369.5,-271.299 366,-261.299 362.5,-271.299 369.5,-271.299"/>
</g>
<!-- 5 -->
<g id="node6" class="node"><title>5</title>
<polygon fill="none" stroke="black" points="112,-149.5 7.10543e-015,-149.5 7.10543e-015,-96.5 112,-96.5 112,-149.5"/>
<text text-anchor="middle" x="56" y="-134.3" font-family="Times New Roman,serif" font-size="14.00">gini = 0.0</text>
<text text-anchor="middle" x="56" y="-119.3" font-family="Times New Roman,serif" font-size="14.00">samples = 47</text>
<text text-anchor="middle" x="56" y="-104.3" font-family="Times New Roman,serif" font-size="14.00">value = [0, 47, 0]</text>
</g>
<!-- 4&#45;&gt;5 -->
<g id="edge5" class="edge"><title>4&#45;&gt;5</title>
<path fill="none" stroke="black" d="M141.767,-192.884C126.978,-181.006 110.344,-167.646 95.6887,-155.876"/>
<polygon fill="black" stroke="black" points="97.7632,-153.053 87.7748,-149.52 93.3799,-158.511 97.7632,-153.053"/>
</g>
<!-- 6 -->
<g id="node7" class="node"><title>6</title>
<polygon fill="none" stroke="black" points="235.5,-149.5 130.5,-149.5 130.5,-96.5 235.5,-96.5 235.5,-149.5"/>
<text text-anchor="middle" x="183" y="-134.3" font-family="Times New Roman,serif" font-size="14.00">gini = 0.0</text>
<text text-anchor="middle" x="183" y="-119.3" font-family="Times New Roman,serif" font-size="14.00">samples = 1</text>
<text text-anchor="middle" x="183" y="-104.3" font-family="Times New Roman,serif" font-size="14.00">value = [0, 0, 1]</text>
</g>
<!-- 4&#45;&gt;6 -->
<g id="edge6" class="edge"><title>4&#45;&gt;6</title>
<path fill="none" stroke="black" d="M183,-192.884C183,-182.326 183,-170.597 183,-159.854"/>
<polygon fill="black" stroke="black" points="186.5,-159.52 183,-149.52 179.5,-159.52 186.5,-159.52"/>
</g>
<!-- 8 -->
<g id="node9" class="node"><title>8</title>
<polygon fill="none" stroke="black" points="358.5,-149.5 253.5,-149.5 253.5,-96.5 358.5,-96.5 358.5,-149.5"/>
<text text-anchor="middle" x="306" y="-134.3" font-family="Times New Roman,serif" font-size="14.00">gini = 0.0</text>
<text text-anchor="middle" x="306" y="-119.3" font-family="Times New Roman,serif" font-size="14.00">samples = 3</text>
<text text-anchor="middle" x="306" y="-104.3" font-family="Times New Roman,serif" font-size="14.00">value = [0, 0, 3]</text>
</g>
<!-- 7&#45;&gt;8 -->
<g id="edge8" class="edge"><title>7&#45;&gt;8</title>
<path fill="none" stroke="black" d="M346.52,-192.884C339.986,-181.776 332.689,-169.372 326.108,-158.184"/>
<polygon fill="black" stroke="black" points="329.099,-156.365 321.012,-149.52 323.065,-159.914 329.099,-156.365"/>
</g>
<!-- 9 -->
<g id="node10" class="node"><title>9</title>
<polygon fill="none" stroke="black" points="481.5,-157 376.5,-157 376.5,-89 481.5,-89 481.5,-157"/>
<text text-anchor="middle" x="429" y="-141.8" font-family="Times New Roman,serif" font-size="14.00">X[0] &lt;= 6.95</text>
<text text-anchor="middle" x="429" y="-126.8" font-family="Times New Roman,serif" font-size="14.00">gini = 0.4444</text>
<text text-anchor="middle" x="429" y="-111.8" font-family="Times New Roman,serif" font-size="14.00">samples = 3</text>
<text text-anchor="middle" x="429" y="-96.8" font-family="Times New Roman,serif" font-size="14.00">value = [0, 2, 1]</text>
</g>
<!-- 7&#45;&gt;9 -->
<g id="edge9" class="edge"><title>7&#45;&gt;9</title>
<path fill="none" stroke="black" d="M386.454,-192.884C391.736,-184.332 397.492,-175.013 403.014,-166.072"/>
<polygon fill="black" stroke="black" points="406.156,-167.647 408.433,-157.299 400.2,-163.968 406.156,-167.647"/>
</g>
<!-- 10 -->
<g id="node11" class="node"><title>10</title>
<polygon fill="none" stroke="black" points="419.5,-53 314.5,-53 314.5,-0 419.5,-0 419.5,-53"/>
<text text-anchor="middle" x="367" y="-37.8" font-family="Times New Roman,serif" font-size="14.00">gini = 0.0</text>
<text text-anchor="middle" x="367" y="-22.8" font-family="Times New Roman,serif" font-size="14.00">samples = 2</text>
<text text-anchor="middle" x="367" y="-7.8" font-family="Times New Roman,serif" font-size="14.00">value = [0, 2, 0]</text>
</g>
<!-- 9&#45;&gt;10 -->
<g id="edge10" class="edge"><title>9&#45;&gt;10</title>
<path fill="none" stroke="black" d="M407.315,-88.9485C401.554,-80.1664 395.319,-70.6629 389.514,-61.815"/>
<polygon fill="black" stroke="black" points="392.297,-59.6779 383.885,-53.2367 386.445,-63.5178 392.297,-59.6779"/>
</g>
<!-- 11 -->
<g id="node12" class="node"><title>11</title>
<polygon fill="none" stroke="black" points="542.5,-53 437.5,-53 437.5,-0 542.5,-0 542.5,-53"/>
<text text-anchor="middle" x="490" y="-37.8" font-family="Times New Roman,serif" font-size="14.00">gini = 0.0</text>
<text text-anchor="middle" x="490" y="-22.8" font-family="Times New Roman,serif" font-size="14.00">samples = 1</text>
<text text-anchor="middle" x="490" y="-7.8" font-family="Times New Roman,serif" font-size="14.00">value = [0, 0, 1]</text>
</g>
<!-- 9&#45;&gt;11 -->
<g id="edge11" class="edge"><title>9&#45;&gt;11</title>
<path fill="none" stroke="black" d="M450.335,-88.9485C456.004,-80.1664 462.138,-70.6629 467.85,-61.815"/>
<polygon fill="black" stroke="black" points="470.904,-63.5365 473.387,-53.2367 465.023,-59.7402 470.904,-63.5365"/>
</g>
<!-- 13 -->
<g id="node14" class="node"><title>13</title>
<polygon fill="none" stroke="black" points="604.5,-261 499.5,-261 499.5,-193 604.5,-193 604.5,-261"/>
<text text-anchor="middle" x="552" y="-245.8" font-family="Times New Roman,serif" font-size="14.00">X[1] &lt;= 3.1</text>
<text text-anchor="middle" x="552" y="-230.8" font-family="Times New Roman,serif" font-size="14.00">gini = 0.4444</text>
<text text-anchor="middle" x="552" y="-215.8" font-family="Times New Roman,serif" font-size="14.00">samples = 3</text>
<text text-anchor="middle" x="552" y="-200.8" font-family="Times New Roman,serif" font-size="14.00">value = [0, 1, 2]</text>
</g>
<!-- 12&#45;&gt;13 -->
<g id="edge13" class="edge"><title>12&#45;&gt;13</title>
<path fill="none" stroke="black" d="M552,-296.884C552,-288.778 552,-279.982 552,-271.472"/>
<polygon fill="black" stroke="black" points="555.5,-271.299 552,-261.299 548.5,-271.299 555.5,-271.299"/>
</g>
<!-- 16 -->
<g id="node17" class="node"><title>16</title>
<polygon fill="none" stroke="black" points="735,-253.5 623,-253.5 623,-200.5 735,-200.5 735,-253.5"/>
<text text-anchor="middle" x="679" y="-238.3" font-family="Times New Roman,serif" font-size="14.00">gini = 0.0</text>
<text text-anchor="middle" x="679" y="-223.3" font-family="Times New Roman,serif" font-size="14.00">samples = 43</text>
<text text-anchor="middle" x="679" y="-208.3" font-family="Times New Roman,serif" font-size="14.00">value = [0, 0, 43]</text>
</g>
<!-- 12&#45;&gt;16 -->
<g id="edge16" class="edge"><title>12&#45;&gt;16</title>
<path fill="none" stroke="black" d="M593.233,-296.884C608.022,-285.006 624.656,-271.646 639.311,-259.876"/>
<polygon fill="black" stroke="black" points="641.62,-262.511 647.225,-253.52 637.237,-257.053 641.62,-262.511"/>
</g>
<!-- 14 -->
<g id="node15" class="node"><title>14</title>
<polygon fill="none" stroke="black" points="604.5,-149.5 499.5,-149.5 499.5,-96.5 604.5,-96.5 604.5,-149.5"/>
<text text-anchor="middle" x="552" y="-134.3" font-family="Times New Roman,serif" font-size="14.00">gini = 0.0</text>
<text text-anchor="middle" x="552" y="-119.3" font-family="Times New Roman,serif" font-size="14.00">samples = 2</text>
<text text-anchor="middle" x="552" y="-104.3" font-family="Times New Roman,serif" font-size="14.00">value = [0, 0, 2]</text>
</g>
<!-- 13&#45;&gt;14 -->
<g id="edge14" class="edge"><title>13&#45;&gt;14</title>
<path fill="none" stroke="black" d="M552,-192.884C552,-182.326 552,-170.597 552,-159.854"/>
<polygon fill="black" stroke="black" points="555.5,-159.52 552,-149.52 548.5,-159.52 555.5,-159.52"/>
</g>
<!-- 15 -->
<g id="node16" class="node"><title>15</title>
<polygon fill="none" stroke="black" points="727.5,-149.5 622.5,-149.5 622.5,-96.5 727.5,-96.5 727.5,-149.5"/>
<text text-anchor="middle" x="675" y="-134.3" font-family="Times New Roman,serif" font-size="14.00">gini = 0.0</text>
<text text-anchor="middle" x="675" y="-119.3" font-family="Times New Roman,serif" font-size="14.00">samples = 1</text>
<text text-anchor="middle" x="675" y="-104.3" font-family="Times New Roman,serif" font-size="14.00">value = [0, 1, 0]</text>
</g>
<!-- 13&#45;&gt;15 -->
<g id="edge15" class="edge"><title>13&#45;&gt;15</title>
<path fill="none" stroke="black" d="M591.935,-192.884C606.125,-181.116 622.069,-167.894 636.167,-156.203"/>
<polygon fill="black" stroke="black" points="638.763,-158.597 644.226,-149.52 634.294,-153.209 638.763,-158.597"/>
</g>
</g>
</svg>
